# Blender 4.2.3 LTS
# www.blender.org
mtllib box.mtl
o box
v -42.501236 0.000003 42.501251
v -32.501236 0.000003 42.501251
v -42.501236 85.000000 42.501244
v -32.501236 85.000000 42.501244
v -42.501236 85.000000 32.501244
v -32.501236 85.000000 32.501244
v -42.501236 0.000002 32.501251
v -32.501236 0.000002 32.501251
v 32.501244 0.000003 42.501251
v 42.501244 0.000003 42.501251
v 32.501244 85.000000 42.501244
v 42.501244 85.000000 42.501244
v 32.501244 85.000000 32.501244
v 42.501244 85.000000 32.501244
v 32.501244 0.000002 32.501251
v 42.501244 0.000002 32.501251
v 32.501244 -0.000002 -32.501255
v 42.501244 -0.000002 -32.501255
v 32.501244 85.000000 -32.501263
v 42.501244 85.000000 -32.501263
v 32.501244 85.000000 -42.501263
v 42.501244 85.000000 -42.501263
v 32.501244 -0.000003 -42.501255
v 42.501244 -0.000003 -42.501255
v -42.501236 -0.000002 -32.501255
v -32.501236 -0.000002 -32.501255
v -42.501236 85.000000 -32.501263
v -32.501236 85.000000 -32.501263
v -42.501236 85.000000 -42.501263
v -32.501236 85.000000 -42.501263
v -42.501236 -0.000003 -42.501255
v -32.501236 -0.000003 -42.501255
v 35.001244 77.501251 -40.842529
v 40.001244 77.501251 -40.842529
v 35.001244 77.501251 39.157471
v 40.001244 77.501251 39.157471
v 35.001244 82.501251 39.157471
v 40.001244 82.501251 39.157471
v 35.001244 82.501251 -40.842529
v 40.001244 82.501251 -40.842529
v -40.001236 2.498746 -40.842522
v -35.001236 2.498746 -40.842522
v -40.001236 2.498752 39.157478
v -35.001236 2.498752 39.157478
v -40.001236 7.498752 39.157478
v -35.001236 7.498752 39.157478
v -40.001236 7.498746 -40.842522
v -35.001236 7.498746 -40.842522
v -40.001236 77.501251 -40.842529
v -35.001236 77.501251 -40.842529
v -40.001236 77.501251 39.157471
v -35.001236 77.501251 39.157471
v -40.001236 82.501251 39.157471
v -35.001236 82.501251 39.157471
v -40.001236 82.501251 -40.842529
v -35.001236 82.501251 -40.842529
v 35.001244 2.498746 -40.842522
v 40.001244 2.498746 -40.842522
v 35.001244 2.498752 39.157478
v 40.001244 2.498752 39.157478
v 35.001244 7.498752 39.157478
v 40.001244 7.498752 39.157478
v 35.001244 7.498746 -40.842522
v 40.001244 7.498746 -40.842522
v -38.751236 4.744497 -31.205700
v -36.251236 4.744497 -31.205700
v -38.751236 76.877579 34.892075
v -36.251236 76.877579 34.892075
v -38.751236 80.255531 31.205690
v -36.251236 80.255531 31.205690
v -38.751236 8.122449 -34.892086
v -36.251236 8.122449 -34.892086
v 38.751236 4.744503 31.205704
v 36.251236 4.744503 31.205704
v 38.751236 76.877579 -34.892090
v 36.251236 76.877579 -34.892090
v 38.751236 80.255531 -31.205702
v 36.251236 80.255531 -31.205702
v 38.751236 8.122455 34.892090
v 36.251236 8.122455 34.892090
v 31.205696 3.748782 37.755516
v 31.205696 6.248782 37.755516
v -34.892090 3.748776 -34.377563
v -34.892090 6.248776 -34.377563
v -31.205704 3.748776 -37.755516
v -31.205704 6.248776 -37.755516
v 34.892082 3.748782 34.377563
v 34.892082 6.248781 34.377563
v 31.205711 81.251251 -37.755524
v 31.205711 78.751251 -37.755524
v -34.892075 81.251251 34.377556
v -34.892075 78.751251 34.377556
v -31.205688 81.251251 37.755508
v -31.205688 78.751251 37.755508
v 34.892097 81.251251 -34.377571
v 34.892097 78.751251 -34.377571
v -31.205704 4.744503 38.751228
v -31.205704 4.744503 36.251228
v 34.892082 76.877579 38.751221
v 34.892082 76.877579 36.251221
v 31.205696 80.255531 38.751221
v 31.205696 80.255531 36.251221
v -34.892090 8.122455 38.751228
v -34.892090 8.122455 36.251228
v -40.842522 77.501251 -35.001251
v -40.842522 77.501251 -40.001251
v 39.157478 77.501251 -35.001251
v 39.157478 77.501251 -40.001251
v 39.157478 82.501251 -35.001251
v 39.157478 82.501251 -40.001251
v -40.842522 82.501251 -35.001251
v -40.842522 82.501251 -40.001251
v 40.842522 77.501251 35.001236
v 40.842522 77.501251 40.001236
v -39.157478 77.501251 35.001236
v -39.157478 77.501251 40.001236
v -39.157478 82.501251 35.001236
v -39.157478 82.501251 40.001236
v 40.842522 82.501251 35.001236
v 40.842522 82.501251 40.001236
v 40.842522 2.498752 35.001244
v 40.842522 2.498752 40.001244
v -39.157478 2.498752 35.001244
v -39.157478 2.498752 40.001244
v -39.157478 7.498752 35.001244
v -39.157478 7.498752 40.001244
v 40.842522 7.498752 35.001244
v 40.842522 7.498752 40.001244
v -40.842522 2.498746 -35.001244
v -40.842522 2.498746 -40.001244
v 39.157478 2.498746 -35.001244
v 39.157478 2.498746 -40.001244
v 39.157478 7.498746 -35.001244
v 39.157478 7.498746 -40.001244
v -40.842522 7.498746 -35.001244
v -40.842522 7.498746 -40.001244
v 31.205711 4.744497 -38.751236
v 31.205711 4.744497 -36.251236
v -34.892075 76.877579 -38.751244
v -34.892075 76.877579 -36.251244
v -31.205688 80.255531 -38.751244
v -31.205688 80.255531 -36.251244
v 34.892097 8.122449 -38.751236
v 34.892097 8.122449 -36.251236
v 37.501244 4.998746 -37.501255
v -37.501236 4.998746 -37.501255
v 37.501251 4.998752 37.501251
v -37.501236 4.998752 37.501251
v 37.501244 80.001251 -37.501263
v 37.501244 80.001251 37.501251
v -37.501236 80.001251 37.501244
v -37.501236 80.001251 -37.501263
vn -0.0000 -0.0000 1.0000
vn -0.0000 1.0000 -0.0000
vn -0.0000 -0.0000 -1.0000
vn -0.0000 -1.0000 -0.0000
vn 1.0000 -0.0000 -0.0000
vn -1.0000 -0.0000 -0.0000
vn -0.0000 -0.6756 0.7373
vn -0.0000 0.6756 -0.7373
vn -0.0000 -0.6756 -0.7373
vn -0.0000 0.6756 0.7373
vn -0.7373 -0.0000 0.6756
vn 0.7373 -0.0000 -0.6756
vn -0.7373 -0.0000 -0.6756
vn 0.7373 -0.0000 0.6756
vn 0.7373 -0.6756 -0.0000
vn -0.7373 0.6756 -0.0000
vn -0.7373 -0.6756 -0.0000
vn 0.7373 0.6756 -0.0000
vt 0.234289 0.728858
vt 0.202712 0.997262
vt 0.202712 0.728858
vt 0.247199 0.129331
vt 0.215623 0.160906
vt 0.215623 0.129331
vt 0.794922 0.997260
vt 0.826499 0.728858
vt 0.826499 0.997260
vt 0.123895 0.692059
vt 0.092318 0.723636
vt 0.092318 0.692059
vt 0.818535 0.002798
vt 0.786960 0.271200
vt 0.786960 0.002798
vt 0.197489 0.728858
vt 0.165913 0.997262
vt 0.165913 0.728858
vt 0.173604 0.002798
vt 0.142027 0.271200
vt 0.142027 0.002798
vt 0.928929 0.276523
vt 0.897353 0.308100
vt 0.897353 0.276523
vt 0.831719 0.997262
vt 0.863296 0.728858
vt 0.863296 0.997262
vt 0.997361 0.630515
vt 0.965784 0.662090
vt 0.965784 0.630515
vt 0.855334 0.002798
vt 0.823757 0.271202
vt 0.823757 0.002798
vt 0.160693 0.728858
vt 0.129116 0.997260
vt 0.129116 0.728858
vt 0.136805 0.002798
vt 0.105230 0.271200
vt 0.105230 0.002798
vt 0.100008 0.276523
vt 0.068431 0.308099
vt 0.068431 0.276523
vt 0.092318 0.997262
vt 0.123895 0.728858
vt 0.123895 0.997262
vt 0.936892 0.692059
vt 0.905316 0.723636
vt 0.905316 0.692059
vt 0.210400 0.002798
vt 0.178825 0.271202
vt 0.178825 0.002798
vt 0.936892 0.728858
vt 0.905316 0.997260
vt 0.905316 0.728858
vt 0.928929 0.002798
vt 0.897353 0.271202
vt 0.897353 0.002798
vt 0.781740 0.129331
vt 0.750162 0.160906
vt 0.750162 0.129331
vt 0.068431 0.271200
vt 0.100007 0.002798
vt 0.100007 0.271200
vt 0.034373 0.609425
vt 0.002798 0.641002
vt 0.002798 0.609425
vt 0.892133 0.002798
vt 0.860556 0.271200
vt 0.860556 0.002798
vt 0.900096 0.728858
vt 0.868518 0.997262
vt 0.868518 0.728858
vt 0.492123 0.934015
vt 0.239510 0.918227
vt 0.492123 0.918227
vt 0.215623 0.066064
vt 0.468238 0.081852
vt 0.215623 0.081852
vt 0.789735 0.934015
vt 0.537121 0.918227
vt 0.789735 0.918227
vt 0.529159 0.066064
vt 0.781775 0.081852
vt 0.529159 0.081852
vt 0.492124 0.955105
vt 0.239510 0.939316
vt 0.492124 0.939316
vt 0.215623 0.044975
vt 0.468240 0.060764
vt 0.215623 0.060764
vt 0.789736 0.955106
vt 0.537121 0.939316
vt 0.789736 0.939316
vt 0.529159 0.044975
vt 0.781775 0.060765
vt 0.529159 0.060765
vt 0.492126 0.976193
vt 0.239510 0.960405
vt 0.492126 0.960405
vt 0.215623 0.023886
vt 0.468240 0.039675
vt 0.215623 0.039675
vt 0.781773 0.018585
vt 0.529159 0.002798
vt 0.781773 0.002798
vt 0.537121 0.981494
vt 0.789735 0.997282
vt 0.537121 0.997282
vt 0.468238 0.018585
vt 0.215623 0.002798
vt 0.468238 0.002798
vt 0.239510 0.981494
vt 0.492125 0.997281
vt 0.239510 0.997281
vt 0.781775 0.039674
vt 0.529159 0.023886
vt 0.781775 0.023886
vt 0.537121 0.960405
vt 0.789736 0.976193
vt 0.537121 0.976193
vt 0.002798 0.311736
vt 0.010690 0.002798
vt 0.010690 0.311736
vt 0.063198 0.002798
vt 0.055305 0.311737
vt 0.055305 0.002798
vt 0.997283 0.311736
vt 0.981494 0.002798
vt 0.997283 0.002798
vt 0.023817 0.002798
vt 0.015924 0.311736
vt 0.015924 0.002798
vt 0.023886 0.997340
vt 0.031779 0.688402
vt 0.031779 0.997340
vt 0.960405 0.002798
vt 0.976193 0.311737
vt 0.960405 0.311737
vt 0.029051 0.311737
vt 0.036943 0.002798
vt 0.036943 0.311737
vt 0.955172 0.002798
vt 0.947278 0.311737
vt 0.947278 0.002798
vt 0.955240 0.997340
vt 0.971027 0.688402
vt 0.971027 0.997340
vt 0.042178 0.311736
vt 0.050070 0.002798
vt 0.050070 0.311736
vt 0.942045 0.002798
vt 0.934151 0.311737
vt 0.934151 0.002798
vt 0.071229 0.997340
vt 0.087018 0.688402
vt 0.087018 0.997340
vt 0.950007 0.688402
vt 0.942113 0.997341
vt 0.942113 0.688402
vt 0.058102 0.997341
vt 0.065994 0.688402
vt 0.065994 0.997341
vt 0.052801 0.688402
vt 0.037013 0.997340
vt 0.037013 0.688402
vt 0.537121 0.876049
vt 0.789736 0.891837
vt 0.537121 0.891837
vt 0.255411 0.332767
vt 0.002798 0.316978
vt 0.255411 0.316978
vt 0.492124 0.912925
vt 0.239510 0.897139
vt 0.492124 0.897139
vt 0.529159 0.108242
vt 0.781773 0.124029
vt 0.529159 0.124029
vt 0.997396 0.683100
vt 0.744782 0.667312
vt 0.997396 0.667312
vt 0.215623 0.108242
vt 0.468238 0.124031
vt 0.215623 0.124031
vt 0.255413 0.662013
vt 0.002798 0.646224
vt 0.255413 0.646224
vt 0.744782 0.338068
vt 0.997398 0.353857
vt 0.744782 0.353857
vt 0.789737 0.870748
vt 0.537121 0.854960
vt 0.789737 0.854960
vt 0.002798 0.338068
vt 0.255413 0.353856
vt 0.002798 0.353856
vt 0.492124 0.891838
vt 0.239510 0.876049
vt 0.492124 0.876049
vt 0.744782 0.316978
vt 0.997396 0.332766
vt 0.744782 0.332766
vt 0.002798 0.667312
vt 0.255413 0.683101
vt 0.002798 0.683101
vt 0.468240 0.102941
vt 0.215623 0.087153
vt 0.468240 0.087153
vt 0.789735 0.912927
vt 0.537121 0.897139
vt 0.789735 0.897139
vt 0.529159 0.087153
vt 0.781773 0.102941
vt 0.529159 0.102941
vt 0.976330 0.997340
vt 0.984222 0.688402
vt 0.984222 0.997340
vt 0.997349 0.688402
vt 0.989456 0.997341
vt 0.989456 0.688402
vt 0.002798 0.997341
vt 0.018585 0.688402
vt 0.018585 0.997341
vt 0.739525 0.366165
vt 0.502690 0.129331
vt 0.739503 0.129352
vt 0.497433 0.633958
vt 0.260599 0.870793
vt 0.260599 0.633958
vt 0.002798 0.595992
vt 0.239632 0.359157
vt 0.239632 0.595992
vt 0.739514 0.849692
vt 0.502690 0.612869
vt 0.739526 0.612869
vt 0.497434 0.628701
vt 0.260620 0.391888
vt 0.497434 0.391866
vt 0.760490 0.595992
vt 0.997326 0.359157
vt 0.997326 0.595992
vt 0.234289 0.997262
vt 0.247199 0.160906
vt 0.794922 0.728858
vt 0.123895 0.723636
vt 0.818535 0.271200
vt 0.197489 0.997262
vt 0.173604 0.271200
vt 0.928929 0.308100
vt 0.831719 0.728858
vt 0.997361 0.662090
vt 0.855334 0.271202
vt 0.160693 0.997260
vt 0.136805 0.271200
vt 0.100008 0.308099
vt 0.092318 0.728858
vt 0.936892 0.723636
vt 0.210400 0.271202
vt 0.936892 0.997260
vt 0.928929 0.271202
vt 0.781740 0.160906
vt 0.068431 0.002798
vt 0.034373 0.641002
vt 0.892133 0.271200
vt 0.900096 0.997262
vt 0.239510 0.934015
vt 0.468238 0.066064
vt 0.537121 0.934015
vt 0.781775 0.066064
vt 0.239510 0.955105
vt 0.468240 0.044975
vt 0.537121 0.955106
vt 0.781775 0.044975
vt 0.239510 0.976193
vt 0.468240 0.023886
vt 0.529159 0.018585
vt 0.789735 0.981494
vt 0.215623 0.018585
vt 0.492125 0.981494
vt 0.529159 0.039674
vt 0.789736 0.960405
vt 0.002798 0.002798
vt 0.063198 0.311737
vt 0.981494 0.311736
vt 0.023817 0.311736
vt 0.023886 0.688402
vt 0.976193 0.002798
vt 0.029051 0.002798
vt 0.955172 0.311737
vt 0.955240 0.688402
vt 0.042178 0.002798
vt 0.942045 0.311737
vt 0.071229 0.688402
vt 0.950007 0.997341
vt 0.058102 0.688402
vt 0.052801 0.997340
vt 0.789736 0.876049
vt 0.002798 0.332767
vt 0.239510 0.912925
vt 0.781773 0.108242
vt 0.744782 0.683100
vt 0.468238 0.108242
vt 0.002798 0.662013
vt 0.997398 0.338068
vt 0.537121 0.870748
vt 0.255413 0.338068
vt 0.239510 0.891838
vt 0.997396 0.316978
vt 0.255413 0.667312
vt 0.215623 0.102941
vt 0.537121 0.912927
vt 0.781773 0.087153
vt 0.976330 0.688402
vt 0.997349 0.997341
vt 0.002798 0.688402
vt 0.502690 0.366165
vt 0.497433 0.870793
vt 0.002798 0.359157
vt 0.502690 0.849703
vt 0.260599 0.628701
vt 0.760490 0.359157
s 0
usemtl initialShadingGroup.001
f 2/1/1 3/2/1 1/3/1
f 4/4/2 5/5/2 3/6/2
f 6/7/3 7/8/3 5/9/3
f 8/10/4 1/11/4 7/12/4
f 8/13/5 4/14/5 2/15/5
f 1/16/6 5/17/6 7/18/6
f 10/19/1 11/20/1 9/21/1
f 12/22/2 13/23/2 11/24/2
f 14/25/3 15/26/3 13/27/3
f 16/28/4 9/29/4 15/30/4
f 16/31/5 12/32/5 10/33/5
f 9/34/6 13/35/6 15/36/6
f 18/37/1 19/38/1 17/39/1
f 20/40/2 21/41/2 19/42/2
f 22/43/3 23/44/3 21/45/3
f 24/46/4 17/47/4 23/48/4
f 24/49/5 20/50/5 18/51/5
f 17/52/6 21/53/6 23/54/6
f 26/55/1 27/56/1 25/57/1
f 28/58/2 29/59/2 27/60/2
f 30/61/3 31/62/3 29/63/3
f 32/64/4 25/65/4 31/66/4
f 32/67/5 28/68/5 26/69/5
f 25/70/6 29/71/6 31/72/6
f 34/73/4 35/74/4 33/75/4
f 38/76/2 39/77/2 37/78/2
f 40/79/5 36/80/5 34/81/5
f 33/82/6 37/83/6 39/84/6
f 42/85/4 43/86/4 41/87/4
f 46/88/2 47/89/2 45/90/2
f 48/91/5 44/92/5 42/93/5
f 41/94/6 45/95/6 47/96/6
f 50/97/4 51/98/4 49/99/4
f 54/100/2 55/101/2 53/102/2
f 56/103/5 52/104/5 50/105/5
f 49/106/6 53/107/6 55/108/6
f 58/109/4 59/110/4 57/111/4
f 62/112/2 63/113/2 61/114/2
f 64/115/5 60/116/5 58/117/5
f 57/118/6 61/119/6 63/120/6
f 66/121/7 67/122/7 65/123/7
f 70/124/8 71/125/8 69/126/8
f 71/127/6 67/128/6 69/129/6
f 74/130/9 75/131/9 73/132/9
f 78/133/10 79/134/10 77/135/10
f 79/136/5 75/137/5 77/138/5
f 82/139/11 83/140/11 81/141/11
f 86/142/12 87/143/12 85/144/12
f 81/145/4 85/146/4 87/147/4
f 90/148/13 91/149/13 89/150/13
f 94/151/14 95/152/14 93/153/14
f 89/154/2 93/155/2 95/156/2
f 98/157/15 99/158/15 97/159/15
f 102/160/16 103/161/16 101/162/16
f 97/163/1 101/164/1 103/165/1
f 106/166/4 107/167/4 105/168/4
f 110/169/2 111/170/2 109/171/2
f 112/172/3 108/173/3 106/174/3
f 105/175/1 109/176/1 111/177/1
f 114/178/4 115/179/4 113/180/4
f 118/181/2 119/182/2 117/183/2
f 120/184/1 116/185/1 114/186/1
f 113/187/3 117/188/3 119/189/3
f 122/190/4 123/191/4 121/192/4
f 126/193/2 127/194/2 125/195/2
f 128/196/1 124/197/1 122/198/1
f 121/199/3 125/200/3 127/201/3
f 130/202/4 131/203/4 129/204/4
f 134/205/2 135/206/2 133/207/2
f 136/208/3 132/209/3 130/210/3
f 129/211/1 133/212/1 135/213/1
f 138/214/17 139/215/17 137/216/17
f 142/217/18 143/218/18 141/219/18
f 137/220/3 141/221/3 143/222/3
f 150/223/1 148/224/1 147/225/1
f 150/226/2 152/227/2 151/228/2
f 149/229/3 146/230/3 152/231/3
f 147/232/4 146/233/4 145/234/4
f 149/235/5 147/236/5 145/237/5
f 152/238/6 148/239/6 151/240/6
f 2/1/1 4/241/1 3/2/1
f 4/4/2 6/242/2 5/5/2
f 6/7/3 8/243/3 7/8/3
f 8/10/4 2/244/4 1/11/4
f 8/13/5 6/245/5 4/14/5
f 1/16/6 3/246/6 5/17/6
f 10/19/1 12/247/1 11/20/1
f 12/22/2 14/248/2 13/23/2
f 14/25/3 16/249/3 15/26/3
f 16/28/4 10/250/4 9/29/4
f 16/31/5 14/251/5 12/32/5
f 9/34/6 11/252/6 13/35/6
f 18/37/1 20/253/1 19/38/1
f 20/40/2 22/254/2 21/41/2
f 22/43/3 24/255/3 23/44/3
f 24/46/4 18/256/4 17/47/4
f 24/49/5 22/257/5 20/50/5
f 17/52/6 19/258/6 21/53/6
f 26/55/1 28/259/1 27/56/1
f 28/58/2 30/260/2 29/59/2
f 30/61/3 32/261/3 31/62/3
f 32/64/4 26/262/4 25/65/4
f 32/67/5 30/263/5 28/68/5
f 25/70/6 27/264/6 29/71/6
f 34/73/4 36/265/4 35/74/4
f 38/76/2 40/266/2 39/77/2
f 40/79/5 38/267/5 36/80/5
f 33/82/6 35/268/6 37/83/6
f 42/85/4 44/269/4 43/86/4
f 46/88/2 48/270/2 47/89/2
f 48/91/5 46/271/5 44/92/5
f 41/94/6 43/272/6 45/95/6
f 50/97/4 52/273/4 51/98/4
f 54/100/2 56/274/2 55/101/2
f 56/103/5 54/275/5 52/104/5
f 49/106/6 51/276/6 53/107/6
f 58/109/4 60/277/4 59/110/4
f 62/112/2 64/278/2 63/113/2
f 64/115/5 62/279/5 60/116/5
f 57/118/6 59/280/6 61/119/6
f 66/121/7 68/281/7 67/122/7
f 70/124/8 72/282/8 71/125/8
f 71/127/6 65/283/6 67/128/6
f 74/130/9 76/284/9 75/131/9
f 78/133/10 80/285/10 79/134/10
f 79/136/5 73/286/5 75/137/5
f 82/139/11 84/287/11 83/140/11
f 86/142/12 88/288/12 87/143/12
f 81/145/4 83/289/4 85/146/4
f 90/148/13 92/290/13 91/149/13
f 94/151/14 96/291/14 95/152/14
f 89/154/2 91/292/2 93/155/2
f 98/157/15 100/293/15 99/158/15
f 102/160/16 104/294/16 103/161/16
f 97/163/1 99/295/1 101/164/1
f 106/166/4 108/296/4 107/167/4
f 110/169/2 112/297/2 111/170/2
f 112/172/3 110/298/3 108/173/3
f 105/175/1 107/299/1 109/176/1
f 114/178/4 116/300/4 115/179/4
f 118/181/2 120/301/2 119/182/2
f 120/184/1 118/302/1 116/185/1
f 113/187/3 115/303/3 117/188/3
f 122/190/4 124/304/4 123/191/4
f 126/193/2 128/305/2 127/194/2
f 128/196/1 126/306/1 124/197/1
f 121/199/3 123/307/3 125/200/3
f 130/202/4 132/308/4 131/203/4
f 134/205/2 136/309/2 135/206/2
f 136/208/3 134/310/3 132/209/3
f 129/211/1 131/311/1 133/212/1
f 138/214/17 140/312/17 139/215/17
f 142/217/18 144/313/18 143/218/18
f 137/220/3 139/314/3 141/221/3
f 150/223/1 151/315/1 148/224/1
f 150/226/2 149/316/2 152/227/2
f 149/229/3 145/317/3 146/230/3
f 147/232/4 148/318/4 146/233/4
f 149/235/5 150/319/5 147/236/5
f 152/238/6 146/320/6 148/239/6
